<svg version="1.1" id="Layer_1" xmlns="http://www.w3.org/2000/svg" xmlns:xlink="http://www.w3.org/1999/xlink" x="0px" y="0px"
	 width="100%" viewBox="0 0 913 180" enable-background="new 0 0 913 180" xml:space="preserve">
<path fill="#FEFEFE" opacity="1.000000" stroke="none" 
	d="
M629.000000,181.000000 
	C419.381165,181.000000 210.262314,181.000000 1.071737,181.000000 
	C1.071737,121.061615 1.071737,61.123123 1.071737,1.092315 
	C305.333313,1.092315 609.666626,1.092315 913.967285,1.092315 
	C913.967285,61.071011 913.967285,121.035515 913.967285,181.000000 
	C819.123108,181.000000 724.311523,181.000000 629.000000,181.000000 
M419.678802,144.101089 
	C424.308105,144.602402 428.963776,145.693466 433.561432,145.487717 
	C444.650452,144.991501 455.762268,144.254425 466.747314,142.753769 
	C469.248688,142.412064 472.706970,138.813232 473.111389,136.294006 
	C473.508881,133.817841 471.263733,129.878067 468.985291,128.211609 
	C462.788025,123.678970 462.405151,117.762688 463.635101,111.307800 
	C464.612030,106.180679 467.826508,105.139732 471.904999,108.318390 
	C473.341278,109.437805 474.682556,110.733276 475.856964,112.125694 
	C483.262085,120.905113 490.469086,129.857025 498.065430,138.466141 
	C500.118713,140.793198 503.226257,143.551743 505.962891,143.678818 
	C517.931641,144.234634 529.945801,144.067398 541.935059,143.793442 
	C546.452637,143.690186 550.471375,141.916412 551.595215,136.732849 
	C552.602539,132.086960 550.200439,128.515854 545.369446,125.384186 
	C540.843506,122.450203 536.464417,119.099777 532.655518,115.296852 
	C527.717651,110.366661 523.389160,104.823372 518.833252,99.514000 
	C512.000916,91.551743 505.155548,83.599915 498.404083,75.569359 
	C495.447388,72.052513 494.194305,67.675377 497.493500,64.183769 
	C505.639648,55.562546 512.280701,44.400360 527.001099,45.865414 
	C532.089844,46.371868 535.355469,42.890068 535.910828,38.313229 
	C536.440063,33.952076 534.254700,30.123598 529.421265,28.997639 
	C515.109924,25.663746 500.644409,25.607639 486.426392,29.319038 
	C479.543579,31.115681 478.023682,36.038799 480.582794,43.044914 
	C481.259918,44.898529 481.796173,47.739552 480.874298,49.079567 
	C476.839630,54.944275 472.510834,60.663235 467.747864,65.947540 
	C465.172607,68.804657 462.067383,67.806664 461.625092,64.117348 
	C460.766479,56.954929 460.674255,49.634098 466.872040,44.348244 
	C469.787079,41.862148 470.736481,39.013088 469.977173,35.504234 
	C468.877808,30.424107 464.753754,28.403471 460.394257,28.171991 
	C449.796783,27.609289 439.153534,27.445272 428.546844,27.750635 
	C424.348663,27.871498 419.941986,29.090107 416.083191,30.819485 
	C409.325531,33.848022 408.615784,41.575478 414.782104,45.522369 
	C419.201813,48.351292 421.665833,52.028080 421.715179,56.891315 
	C421.919342,77.010628 422.077423,97.139786 421.574127,117.248337 
	C421.482666,120.900909 419.006592,125.303345 416.260498,127.921982 
	C409.173279,134.680328 409.762054,140.154236 419.678802,144.101089 
M203.962982,115.615654 
	C197.554825,110.277924 195.346756,103.036293 195.360641,95.134735 
	C195.383499,82.140747 195.811447,69.146988 196.115417,56.154221 
	C196.237869,50.919872 198.061691,46.853828 203.517395,44.993412 
	C206.852402,43.856167 209.042694,41.070038 208.053757,37.661427 
	C207.262253,34.933304 205.089752,32.481644 203.115768,30.278582 
	C202.260635,29.324202 200.377716,28.971266 198.937775,28.910469 
	C186.508652,28.385677 174.075043,27.743633 161.640640,27.696833 
	C157.597351,27.681618 153.292725,28.728796 149.556580,30.334599 
	C142.697327,33.282703 141.610397,40.259777 147.643906,44.464611 
	C153.872879,48.805660 155.220718,54.345409 155.090820,61.239796 
	C154.817932,75.723198 154.674545,90.216293 154.881729,104.699631 
	C155.128723,121.967979 164.340363,133.334747 179.674805,140.060410 
	C195.783340,147.125610 212.708389,148.025925 229.599991,144.305145 
	C237.545410,142.554993 245.463531,139.204926 252.480911,135.041016 
	C265.054047,127.580490 268.671143,114.960548 268.871796,101.150276 
	C269.082397,86.655190 269.203552,72.156822 269.148071,57.660717 
	C269.121429,50.706409 270.579468,45.166653 277.693726,41.820499 
	C282.794312,39.421459 282.470215,33.246990 277.585449,30.260612 
	C276.049408,29.321535 274.244049,28.260916 272.548065,28.236891 
	C261.617096,28.082045 250.667038,27.878281 239.756989,28.398363 
	C235.851868,28.584522 231.880814,30.734108 231.131027,35.466747 
	C230.349228,40.401501 234.248276,42.093113 237.735016,43.620140 
	C242.010635,45.492657 244.365158,48.377831 244.405289,53.136822 
	C244.541489,69.289375 245.004242,85.445221 244.777954,101.591911 
	C244.682709,108.386665 241.446655,114.362320 235.169739,117.578957 
	C224.808990,122.888382 214.434708,123.030197 203.962982,115.615654 
M331.158508,29.542049 
	C327.818207,31.021269 324.400604,32.348686 321.149750,34.003620 
	C294.368469,47.637405 281.562469,77.102837 290.736816,104.030281 
	C302.053802,137.246552 334.349731,149.347702 359.655243,145.401474 
	C368.211609,144.067154 376.287231,139.864044 384.712341,137.419189 
	C394.973450,134.441559 401.840546,126.873146 402.954254,116.415619 
	C403.418213,112.059258 402.872925,107.818932 398.718079,105.458153 
	C394.839417,103.254295 392.278931,106.399651 389.578674,108.597260 
	C374.509094,120.861557 350.777954,117.656097 339.525055,101.823944 
	C332.240448,91.574867 329.673737,80.038307 331.147369,67.715218 
	C332.760132,54.228848 343.031342,47.580360 356.216583,50.792599 
	C367.251221,53.480896 373.487518,61.242683 378.496155,70.684837 
	C382.241364,77.745064 386.824127,79.984352 393.408569,78.782722 
	C399.757324,77.624115 404.844788,72.735428 405.729248,65.967331 
	C407.097778,55.495125 404.930573,45.760719 398.199677,37.339508 
	C395.491119,33.950771 392.076294,32.785748 387.628601,33.180439 
	C384.161011,33.488152 380.196075,33.407524 377.119568,32.019791 
	C362.308777,25.339022 347.314270,24.417738 331.158508,29.542049 
M80.204414,144.876999 
	C83.810921,144.256348 87.450729,143.782959 91.015327,142.976959 
	C95.262207,142.016693 98.455276,139.714020 98.425827,134.895203 
	C98.395691,129.965805 95.280930,127.880409 90.719360,127.494781 
	C86.607910,127.147202 84.153236,124.769180 83.883415,120.840660 
	C83.337570,112.893211 83.098236,104.918900 83.007744,96.952538 
	C82.994873,95.819496 84.269241,94.163277 85.377151,93.612000 
	C90.873840,90.876938 98.645966,94.772102 99.977592,100.767387 
	C100.410431,102.716110 100.555260,104.730675 101.019836,106.670090 
	C102.161911,111.437798 106.571442,113.369583 110.546928,110.498581 
	C112.454620,109.120888 114.194756,106.900650 114.990120,104.694084 
	C119.531609,92.094551 119.443382,79.253044 115.887459,66.455475 
	C114.813271,62.589542 112.379585,59.541851 107.744965,59.686462 
	C103.190552,59.828579 101.123756,63.213390 100.667221,66.868576 
	C99.708420,74.545113 94.289078,75.930733 86.692566,74.004799 
	C85.010017,73.578232 82.652260,70.936058 82.707489,69.389099 
	C82.931679,63.108589 83.632179,56.785076 84.928421,50.640144 
	C85.307243,48.844273 88.209846,46.330502 90.010429,46.284397 
	C103.330025,45.943375 116.995438,44.962467 125.990425,58.165359 
	C128.432083,61.749245 131.822739,64.258636 136.642151,62.375015 
	C141.435974,60.501400 142.644821,56.346626 142.749405,51.860664 
	C142.938828,43.735905 140.474945,36.297657 134.970581,30.346334 
	C133.241608,28.476974 129.720154,27.079546 127.193161,27.317141 
	C101.065132,29.773754 74.964119,29.264822 48.835354,27.520645 
	C45.068092,27.269169 41.126060,27.453371 37.472530,28.315664 
	C34.055992,29.122023 31.126677,31.233511 30.729883,35.416595 
	C30.333490,39.595474 33.013237,41.439171 36.232712,42.738914 
	C40.376297,44.411736 42.977150,47.424057 42.962669,51.767921 
	C42.889999,73.560532 42.607754,95.352829 42.309616,117.144012 
	C42.238255,122.359779 39.330791,125.429703 34.689369,127.817177 
	C32.323326,129.034225 29.454691,132.448685 29.629299,134.646133 
	C29.859997,137.549438 32.312790,140.977982 34.816334,142.794113 
	C37.145332,144.483612 40.784489,144.880722 43.862400,144.933105 
	C55.671158,145.134109 67.486176,144.967621 80.204414,144.876999 
M715.050232,158.690460 
	C720.106628,159.658066 725.125916,161.122955 730.226135,161.504272 
	C748.913208,162.901443 766.860474,160.450775 782.361938,148.873016 
	C791.982117,141.687866 798.938477,132.437378 797.496338,119.718719 
	C796.035278,106.833199 787.308167,99.156891 775.913818,94.507866 
	C770.107300,92.138725 763.968628,90.459732 757.851074,89.014984 
	C752.695251,87.797363 747.288147,87.643745 742.131775,86.427666 
	C740.533325,86.050690 738.276306,83.683922 738.340759,82.323837 
	C738.411438,80.832062 740.599731,79.048752 742.272278,78.149780 
	C743.592041,77.440460 745.528503,77.819893 747.191223,77.816895 
	C757.683594,77.797981 768.175964,77.809181 778.668335,77.806732 
	C787.897827,77.804581 791.329041,75.722870 794.361023,67.063583 
	C795.765076,63.053738 796.334351,58.673119 796.725647,54.409531 
	C797.106384,50.260872 795.077820,47.993263 790.507568,48.017624 
	C770.689209,48.123264 750.869873,48.105812 731.051208,48.035240 
	C726.132202,48.017723 722.809326,50.020649 721.019409,54.632782 
	C718.196533,61.906277 714.989685,69.049179 712.540710,76.444481 
	C709.724487,84.948746 707.221313,93.590408 705.210938,102.317238 
	C703.567505,109.451317 705.610535,111.949432 712.791443,113.530449 
	C713.925171,113.780052 715.120972,113.782928 716.230774,114.100128 
	C723.381958,116.143951 730.761353,117.657051 737.585388,120.498230 
	C743.763184,123.070320 746.015503,128.136581 745.030640,133.242111 
	C744.133240,137.894058 739.468262,141.958649 733.062012,141.961502 
	C726.493530,141.964432 719.853088,140.995178 713.383789,139.734695 
	C709.768982,139.030380 708.116638,139.988708 706.944336,143.142944 
	C704.235168,150.432251 706.402649,154.967468 715.050232,158.690460 
M677.246643,77.532784 
	C681.786804,67.510139 678.764954,57.464485 668.970398,53.192287 
	C647.014832,43.615665 625.254822,44.910751 604.086121,55.936016 
	C601.945496,57.050926 599.928162,58.853107 598.510864,60.811916 
	C595.613953,64.815651 597.047180,68.743484 599.773193,72.264435 
	C602.392639,75.647758 605.080078,73.466568 607.732788,72.162086 
	C609.672363,71.208313 611.584961,70.151131 613.613892,69.436234 
	C620.353638,67.061455 627.650208,69.385513 630.806091,74.776764 
	C633.934448,80.121208 632.509766,85.947113 626.024536,90.752991 
	C622.494507,93.368919 618.262817,95.167206 614.139282,96.812111 
	C610.875671,98.114006 609.556274,99.985001 610.549561,103.282845 
	C611.264709,105.657379 612.096313,108.018738 613.127319,110.270912 
	C614.555237,113.390068 616.698547,114.244392 620.396057,113.541679 
	C625.032410,112.660545 630.003967,112.458710 634.672241,113.106430 
	C640.420471,113.904007 644.898560,117.214287 646.189026,123.370804 
	C647.524475,129.741745 644.545166,134.395050 639.511292,137.809326 
	C632.442505,142.603790 624.482788,142.648010 616.435974,141.448929 
	C612.657837,140.885925 608.960388,139.768539 605.178894,139.245026 
	C600.748840,138.631699 596.275696,141.314209 595.235840,145.129608 
	C594.022888,149.580139 595.716248,152.977325 599.679688,155.193634 
	C601.116638,155.997147 602.679199,156.626373 604.249695,157.132843 
	C623.921997,163.477097 643.664062,162.982605 663.168701,156.783981 
	C677.678711,152.172623 688.774414,143.271378 693.439270,128.122009 
	C698.421387,111.942123 691.994995,98.600662 677.347717,94.030579 
	C675.446716,93.437439 673.457642,93.129250 671.550293,92.553474 
	C666.481140,91.023239 666.192810,89.558014 669.882446,85.919342 
	C672.356079,83.479866 674.573914,80.780952 677.246643,77.532784 
M902.187439,105.611755 
	C904.251343,92.155670 901.199280,79.767197 893.918152,68.461685 
	C875.997070,40.635300 834.967163,38.706108 816.168823,64.859818 
	C807.834229,76.455566 806.636292,89.826561 808.053650,103.560753 
	C810.548401,127.733879 829.725464,145.551529 853.713135,146.142471 
	C877.670593,146.732651 898.536926,129.621429 902.187439,105.611755 
z"/>
<path fill="#020202" opacity="1.000000" stroke="none" 
	d="
M419.274780,144.041534 
	C409.762054,140.154236 409.173279,134.680328 416.260498,127.921982 
	C419.006592,125.303345 421.482666,120.900909 421.574127,117.248337 
	C422.077423,97.139786 421.919342,77.010628 421.715179,56.891315 
	C421.665833,52.028080 419.201813,48.351292 414.782104,45.522369 
	C408.615784,41.575478 409.325531,33.848022 416.083191,30.819485 
	C419.941986,29.090107 424.348663,27.871498 428.546844,27.750635 
	C439.153534,27.445272 449.796783,27.609289 460.394257,28.171991 
	C464.753754,28.403471 468.877808,30.424107 469.977173,35.504234 
	C470.736481,39.013088 469.787079,41.862148 466.872040,44.348244 
	C460.674255,49.634098 460.766479,56.954929 461.625092,64.117348 
	C462.067383,67.806664 465.172607,68.804657 467.747864,65.947540 
	C472.510834,60.663235 476.839630,54.944275 480.874298,49.079567 
	C481.796173,47.739552 481.259918,44.898529 480.582794,43.044914 
	C478.023682,36.038799 479.543579,31.115681 486.426392,29.319038 
	C500.644409,25.607639 515.109924,25.663746 529.421265,28.997639 
	C534.254700,30.123598 536.440063,33.952076 535.910828,38.313229 
	C535.355469,42.890068 532.089844,46.371868 527.001099,45.865414 
	C512.280701,44.400360 505.639648,55.562546 497.493500,64.183769 
	C494.194305,67.675377 495.447388,72.052513 498.404083,75.569359 
	C505.155548,83.599915 512.000916,91.551743 518.833252,99.514000 
	C523.389160,104.823372 527.717651,110.366661 532.655518,115.296852 
	C536.464417,119.099777 540.843506,122.450203 545.369446,125.384186 
	C550.200439,128.515854 552.602539,132.086960 551.595215,136.732849 
	C550.471375,141.916412 546.452637,143.690186 541.935059,143.793442 
	C529.945801,144.067398 517.931641,144.234634 505.962891,143.678818 
	C503.226257,143.551743 500.118713,140.793198 498.065430,138.466141 
	C490.469086,129.857025 483.262085,120.905113 475.856964,112.125694 
	C474.682556,110.733276 473.341278,109.437805 471.904999,108.318390 
	C467.826508,105.139732 464.612030,106.180679 463.635101,111.307800 
	C462.405151,117.762688 462.788025,123.678970 468.985291,128.211609 
	C471.263733,129.878067 473.508881,133.817841 473.111389,136.294006 
	C472.706970,138.813232 469.248688,142.412064 466.747314,142.753769 
	C455.762268,144.254425 444.650452,144.991501 433.561432,145.487717 
	C428.963776,145.693466 424.308105,144.602402 419.274780,144.041534 
z"/>
<path fill="#020202" opacity="1.000000" stroke="none" 
	d="
M204.262970,115.820885 
	C214.434708,123.030197 224.808990,122.888382 235.169739,117.578957 
	C241.446655,114.362320 244.682709,108.386665 244.777954,101.591911 
	C245.004242,85.445221 244.541489,69.289375 244.405289,53.136822 
	C244.365158,48.377831 242.010635,45.492657 237.735016,43.620140 
	C234.248276,42.093113 230.349228,40.401501 231.131027,35.466747 
	C231.880814,30.734108 235.851868,28.584522 239.756989,28.398363 
	C250.667038,27.878281 261.617096,28.082045 272.548065,28.236891 
	C274.244049,28.260916 276.049408,29.321535 277.585449,30.260612 
	C282.470215,33.246990 282.794312,39.421459 277.693726,41.820499 
	C270.579468,45.166653 269.121429,50.706409 269.148071,57.660717 
	C269.203552,72.156822 269.082397,86.655190 268.871796,101.150276 
	C268.671143,114.960548 265.054047,127.580490 252.480911,135.041016 
	C245.463531,139.204926 237.545410,142.554993 229.599991,144.305145 
	C212.708389,148.025925 195.783340,147.125610 179.674805,140.060410 
	C164.340363,133.334747 155.128723,121.967979 154.881729,104.699631 
	C154.674545,90.216293 154.817932,75.723198 155.090820,61.239796 
	C155.220718,54.345409 153.872879,48.805660 147.643906,44.464611 
	C141.610397,40.259777 142.697327,33.282703 149.556580,30.334599 
	C153.292725,28.728796 157.597351,27.681618 161.640640,27.696833 
	C174.075043,27.743633 186.508652,28.385677 198.937775,28.910469 
	C200.377716,28.971266 202.260635,29.324202 203.115768,30.278582 
	C205.089752,32.481644 207.262253,34.933304 208.053757,37.661427 
	C209.042694,41.070038 206.852402,43.856167 203.517395,44.993412 
	C198.061691,46.853828 196.237869,50.919872 196.115417,56.154221 
	C195.811447,69.146988 195.383499,82.140747 195.360641,95.134735 
	C195.346756,103.036293 197.554825,110.277924 204.262970,115.820885 
z"/>
<path fill="#020202" opacity="1.000000" stroke="none" 
	d="
M331.517761,29.374084 
	C347.314270,24.417738 362.308777,25.339022 377.119568,32.019791 
	C380.196075,33.407524 384.161011,33.488152 387.628601,33.180439 
	C392.076294,32.785748 395.491119,33.950771 398.199677,37.339508 
	C404.930573,45.760719 407.097778,55.495125 405.729248,65.967331 
	C404.844788,72.735428 399.757324,77.624115 393.408569,78.782722 
	C386.824127,79.984352 382.241364,77.745064 378.496155,70.684837 
	C373.487518,61.242683 367.251221,53.480896 356.216583,50.792599 
	C343.031342,47.580360 332.760132,54.228848 331.147369,67.715218 
	C329.673737,80.038307 332.240448,91.574867 339.525055,101.823944 
	C350.777954,117.656097 374.509094,120.861557 389.578674,108.597260 
	C392.278931,106.399651 394.839417,103.254295 398.718079,105.458153 
	C402.872925,107.818932 403.418213,112.059258 402.954254,116.415619 
	C401.840546,126.873146 394.973450,134.441559 384.712341,137.419189 
	C376.287231,139.864044 368.211609,144.067154 359.655243,145.401474 
	C334.349731,149.347702 302.053802,137.246552 290.736816,104.030281 
	C281.562469,77.102837 294.368469,47.637405 321.149750,34.003620 
	C324.400604,32.348686 327.818207,31.021269 331.517761,29.374084 
z"/>
<path fill="#030303" opacity="1.000000" stroke="none" 
	d="
M79.751633,144.907623 
	C67.486176,144.967621 55.671158,145.134109 43.862400,144.933105 
	C40.784489,144.880722 37.145332,144.483612 34.816334,142.794113 
	C32.312790,140.977982 29.859997,137.549438 29.629299,134.646133 
	C29.454691,132.448685 32.323326,129.034225 34.689369,127.817177 
	C39.330791,125.429703 42.238255,122.359779 42.309616,117.144012 
	C42.607754,95.352829 42.889999,73.560532 42.962669,51.767921 
	C42.977150,47.424057 40.376297,44.411736 36.232712,42.738914 
	C33.013237,41.439171 30.333490,39.595474 30.729883,35.416595 
	C31.126677,31.233511 34.055992,29.122023 37.472530,28.315664 
	C41.126060,27.453371 45.068092,27.269169 48.835354,27.520645 
	C74.964119,29.264822 101.065132,29.773754 127.193161,27.317141 
	C129.720154,27.079546 133.241608,28.476974 134.970581,30.346334 
	C140.474945,36.297657 142.938828,43.735905 142.749405,51.860664 
	C142.644821,56.346626 141.435974,60.501400 136.642151,62.375015 
	C131.822739,64.258636 128.432083,61.749245 125.990425,58.165359 
	C116.995438,44.962467 103.330025,45.943375 90.010429,46.284397 
	C88.209846,46.330502 85.307243,48.844273 84.928421,50.640144 
	C83.632179,56.785076 82.931679,63.108589 82.707489,69.389099 
	C82.652260,70.936058 85.010017,73.578232 86.692566,74.004799 
	C94.289078,75.930733 99.708420,74.545113 100.667221,66.868576 
	C101.123756,63.213390 103.190552,59.828579 107.744965,59.686462 
	C112.379585,59.541851 114.813271,62.589542 115.887459,66.455475 
	C119.443382,79.253044 119.531609,92.094551 114.990120,104.694084 
	C114.194756,106.900650 112.454620,109.120888 110.546928,110.498581 
	C106.571442,113.369583 102.161911,111.437798 101.019836,106.670090 
	C100.555260,104.730675 100.410431,102.716110 99.977592,100.767387 
	C98.645966,94.772102 90.873840,90.876938 85.377151,93.612000 
	C84.269241,94.163277 82.994873,95.819496 83.007744,96.952538 
	C83.098236,104.918900 83.337570,112.893211 83.883415,120.840660 
	C84.153236,124.769180 86.607910,127.147202 90.719360,127.494781 
	C95.280930,127.880409 98.395691,129.965805 98.425827,134.895203 
	C98.455276,139.714020 95.262207,142.016693 91.015327,142.976959 
	C87.450729,143.782959 83.810921,144.256348 79.751633,144.907623 
z"/>
<path fill="#030303" opacity="1.000000" stroke="none" 
	d="
M714.698608,158.518127 
	C706.402649,154.967468 704.235168,150.432251 706.944336,143.142944 
	C708.116638,139.988708 709.768982,139.030380 713.383789,139.734695 
	C719.853088,140.995178 726.493530,141.964432 733.062012,141.961502 
	C739.468262,141.958649 744.133240,137.894058 745.030640,133.242111 
	C746.015503,128.136581 743.763184,123.070320 737.585388,120.498230 
	C730.761353,117.657051 723.381958,116.143951 716.230774,114.100128 
	C715.120972,113.782928 713.925171,113.780052 712.791443,113.530449 
	C705.610535,111.949432 703.567505,109.451317 705.210938,102.317238 
	C707.221313,93.590408 709.724487,84.948746 712.540710,76.444481 
	C714.989685,69.049179 718.196533,61.906277 721.019409,54.632782 
	C722.809326,50.020649 726.132202,48.017723 731.051208,48.035240 
	C750.869873,48.105812 770.689209,48.123264 790.507568,48.017624 
	C795.077820,47.993263 797.106384,50.260872 796.725647,54.409531 
	C796.334351,58.673119 795.765076,63.053738 794.361023,67.063583 
	C791.329041,75.722870 787.897827,77.804581 778.668335,77.806732 
	C768.175964,77.809181 757.683594,77.797981 747.191223,77.816895 
	C745.528503,77.819893 743.592041,77.440460 742.272278,78.149780 
	C740.599731,79.048752 738.411438,80.832062 738.340759,82.323837 
	C738.276306,83.683922 740.533325,86.050690 742.131775,86.427666 
	C747.288147,87.643745 752.695251,87.797363 757.851074,89.014984 
	C763.968628,90.459732 770.107300,92.138725 775.913818,94.507866 
	C787.308167,99.156891 796.035278,106.833199 797.496338,119.718719 
	C798.938477,132.437378 791.982117,141.687866 782.361938,148.873016 
	C766.860474,160.450775 748.913208,162.901443 730.226135,161.504272 
	C725.125916,161.122955 720.106628,159.658066 714.698608,158.518127 
z"/>
<path fill="#020202" opacity="1.000000" stroke="none" 
	d="
M677.076416,77.865463 
	C674.573914,80.780952 672.356079,83.479866 669.882446,85.919342 
	C666.192810,89.558014 666.481140,91.023239 671.550293,92.553474 
	C673.457642,93.129250 675.446716,93.437439 677.347717,94.030579 
	C691.994995,98.600662 698.421387,111.942123 693.439270,128.122009 
	C688.774414,143.271378 677.678711,152.172623 663.168701,156.783981 
	C643.664062,162.982605 623.921997,163.477097 604.249695,157.132843 
	C602.679199,156.626373 601.116638,155.997147 599.679688,155.193634 
	C595.716248,152.977325 594.022888,149.580139 595.235840,145.129608 
	C596.275696,141.314209 600.748840,138.631699 605.178894,139.245026 
	C608.960388,139.768539 612.657837,140.885925 616.435974,141.448929 
	C624.482788,142.648010 632.442505,142.603790 639.511292,137.809326 
	C644.545166,134.395050 647.524475,129.741745 646.189026,123.370804 
	C644.898560,117.214287 640.420471,113.904007 634.672241,113.106430 
	C630.003967,112.458710 625.032410,112.660545 620.396057,113.541679 
	C616.698547,114.244392 614.555237,113.390068 613.127319,110.270912 
	C612.096313,108.018738 611.264709,105.657379 610.549561,103.282845 
	C609.556274,99.985001 610.875671,98.114006 614.139282,96.812111 
	C618.262817,95.167206 622.494507,93.368919 626.024536,90.752991 
	C632.509766,85.947113 633.934448,80.121208 630.806091,74.776764 
	C627.650208,69.385513 620.353638,67.061455 613.613892,69.436234 
	C611.584961,70.151131 609.672363,71.208313 607.732788,72.162086 
	C605.080078,73.466568 602.392639,75.647758 599.773193,72.264435 
	C597.047180,68.743484 595.613953,64.815651 598.510864,60.811916 
	C599.928162,58.853107 601.945496,57.050926 604.086121,55.936016 
	C625.254822,44.910751 647.014832,43.615665 668.970398,53.192287 
	C678.764954,57.464485 681.786804,67.510139 677.076416,77.865463 
z"/>
<path fill="#020202" opacity="1.000000" stroke="none" 
	d="
M902.135437,106.044334 
	C898.536926,129.621429 877.670593,146.732651 853.713135,146.142471 
	C829.725464,145.551529 810.548401,127.733879 808.053650,103.560753 
	C806.636292,89.826561 807.834229,76.455566 816.168823,64.859818 
	C834.967163,38.706108 875.997070,40.635300 893.918152,68.461685 
	C901.199280,79.767197 904.251343,92.155670 902.135437,106.044334 
M858.683289,76.923668 
	C856.606934,73.367325 853.858765,70.782715 849.414429,71.971275 
	C845.155090,73.110382 844.189758,76.849854 843.970581,80.573723 
	C843.717773,84.868980 843.299744,89.331825 844.150085,93.476410 
	C845.738281,101.216820 847.985046,108.845169 850.378601,116.386589 
	C851.421448,119.672379 853.986023,122.115883 857.891846,121.756638 
	C861.809204,121.396339 863.472168,118.597382 864.203064,115.079224 
	C864.472534,113.782082 864.865051,112.474617 864.884766,111.167107 
	C865.058289,99.614944 863.651917,88.327568 858.683289,76.923668 
z"/>
<path fill="#FBFBFB" opacity="1.000000" stroke="none" 
	d="
M858.842346,77.269783 
	C863.651917,88.327568 865.058289,99.614944 864.884766,111.167107 
	C864.865051,112.474617 864.472534,113.782082 864.203064,115.079224 
	C863.472168,118.597382 861.809204,121.396339 857.891846,121.756638 
	C853.986023,122.115883 851.421448,119.672379 850.378601,116.386589 
	C847.985046,108.845169 845.738281,101.216820 844.150085,93.476410 
	C843.299744,89.331825 843.717773,84.868980 843.970581,80.573723 
	C844.189758,76.849854 845.155090,73.110382 849.414429,71.971275 
	C853.858765,70.782715 856.606934,73.367325 858.842346,77.269783 
z"/>
</svg>